# xmcd CD database file
#
# Track frame offsets:
#	150
#	13482
#	25282
#	51390
#	70237
#	85402
#	99455
#	113927
#	131757
#	149545
#	166725
#	191607
#
# Disc length: 2747 seconds
#
# Revision: 0
# Processed by: cddbd v1.5.2PL0 Copyright (c) Steve Scherf et al.
# Submitted via: CDex 1.70beta2
#
DISCID=b00ab90c
DTITLE=The Memphis Pilgrims - Mecca
DYEAR=1996
DGENRE=Blues
TTITLE0=It's Over
TTITLE1=I Was The One
TTITLE2=I Want You Back
TTITLE3=Everything Changes
TTITLE4=Damnede If You Don't, Damned If You Do
TTITLE5=You Haunt My Soul
TTITLE6=Love Gone Flat
TTITLE7=Kathleen
TTITLE8=Just My Way
TTITLE9=Kept On Keepin' On
TTITLE10=Judge, I'm Not Sorry
TTITLE11=Saturday Night
EXTD=YEAR: 1996
EXTT0=
EXTT1=
EXTT2=
EXTT3=
EXTT4=
EXTT5=
EXTT6=
EXTT7=
EXTT8=
EXTT9=
EXTT10=
EXTT11=
PLAYORDER=
